<svg version="1.1" xmlns="http://www.w3.org/2000/svg" xmlns:xlink="http://www.w3.org/1999/xlink" width="480" height="276" viewBox="0,0,480,276">
    <defs>
        <clipPath id="clip-1">
        <rect x="0" y="0" width="480" height="276" stroke="none" stroke-width="1" stroke-linecap="butt" stroke-linejoin="miter"/>
        </clipPath>
    </defs>
    <g 
        fill="none" 
        fill-rule="nonzero" 
        stroke="none" 
        stroke-width="none" 
        stroke-linecap="none" 
        stroke-linejoin="none" 
        stroke-miterlimit="10" 
        stroke-dasharray="" 
        stroke-dashoffset="0" 
        font-family="none" 
        font-weight="none" 
        font-size="none" 
        text-anchor="none" 
        style="mix-blend-mode: 
        normal">
        <g clip-path="url(#clip-1)">
            <path d="M4,166.11c71.4823,-21.07737 91.15254,-63.32496 133.932,-127.6705c21.53143,-32.3859 3.39915,-46.60616 -24.831,11.2003c-9.72735,19.91856 -20.22217,39.73724 -26.4707,61.0052c-12.18286,41.46647 -22.63195,83.65795 -28.6072,126.462c-1.61436,11.56459 -5.51201,35.25791 6.1393,34.488c42.96594,-2.83917 10.72035,-127.47801 12.6453,-126.883c51.84517,16.02558 86.92149,-5.74094 109.6763,-54.5008c3.93903,-8.4407 9.8579,-34.99277 4.147,-27.6343c-11.43573,14.7349 -39.35005,76.28228 -15.662,91.1641c9.4177,5.91659 43.10848,-32.44067 45.512,-33.969c23.12932,-14.7073 16.11119,40.50982 25.199,17.399c2.76358,-7.02794 -1.26004,-15.62312 -5.24,-22.041c-1.92275,-3.10052 -4.66954,8.6526 -1.726,10.808c5.8854,4.30957 51.91416,-13.86086 70.657,-6.905c13.21488,4.90432 -16.2906,19.94072 -11.87,19.2c23.15459,-3.87981 38.5214,-3.73452 17.086,53.003c-6.22655,16.48111 -37.16524,50.68394 -40.908,33.468c-6.62399,-30.46899 69.1341,-139.80185 99.784,-108.991c4.42988,4.45314 -10.83489,15.40953 -5.169,18.121c15.74647,7.53562 31.39779,-17.28644 48.759,-19.11c11.72956,-1.23203 33.97196,-4.78559 21.801,-1.379c-17.93773,5.02067 -4.83951,22.93324 7.941,26.869c6.51226,2.00545 -11.03983,-21.06881 -4.313,-19.982c6.27731,1.01418 33.76934,-5.41006 29.845,-3.803" 
                    stroke="#000080" 
                    stroke-width="8" 
                    stroke-linecap="round" 
                    stroke-linejoin="round"
            />
        </g>
    </g>
</svg>