<svg
    width="480"
    height="276"
    viewBox="0 0 480 276"
    fill="none"
    xmlns="http://www.w3.org/2000/svg"
>
    <path
        d="M4 166.11C6.5148 167.784 16.6727 162.47 19.2648 161.609C37.0323 155.711 54.3827 144.031 69.1493 132.705C99.2747 109.599 126.195 74.8094 137.932 38.4395C139.971 32.1213 142.119 25.8648 144.34 19.609C145.459 16.4555 147.997 9.91442 146.172 6.53472C142.909 0.491655 137.654 6.74781 135.841 9.87698C128.183 23.0919 119.647 35.8202 113.101 49.6398C103.586 69.7306 94.9582 90.0342 86.6303 110.645C70.4675 150.647 61.3807 194.223 58.0231 237.107C57.5456 243.205 52.899 270.516 64.1624 271.595C78.1752 272.937 84.2765 245.151 84.9755 235.326C86.0077 220.82 86.1792 206.476 85.3753 191.98C84.7602 180.889 85.027 167.871 81.5826 157.255C80.0976 152.678 78.7918 144.724 75.578 141.065C74.3102 139.622 76.4963 144.04 76.8077 144.712C83.4287 159.002 104.48 157.933 116.755 153.793C134.197 147.909 151.729 136.405 165.304 124.081C175.428 114.891 181.179 102.499 186.484 90.2112C190.125 81.7769 192.795 73.3862 193.268 64.1587C193.445 60.7235 193.099 60.1929 190.631 62.5769C184.861 68.1508 180.802 75.6706 178.447 83.2555C174.497 95.9745 170.294 108.242 168.867 121.574C167.921 130.41 165.886 147.842 174.969 153.741C184.295 159.798 194.455 147.345 199.177 140.616C205.277 131.923 210.031 123.741 220.481 119.772C225.169 117.991 231.103 114.217 235.656 117.42C238.399 119.349 238.579 118.87 236.517 116.168C233.041 111.614 228.388 118.63 227.175 121.399C224.729 126.985 226.535 137.049 229.896 141.944C234.457 148.588 242.416 141.011 245.68 137.171C251.08 130.82 248.912 117.913 240.44 115.13C233.732 112.927 229.652 125.644 238.714 125.938C243.187 126.083 246.909 124.964 250.636 122.596C258.694 117.474 267.398 112.651 277.229 112.508C282.942 112.425 288.746 114.307 294.412 115.157C299.634 115.941 304.478 117.036 309.371 119.033C311.768 120.012 317.016 121.184 318.097 123.947C318.856 125.887 318.095 125.457 317.256 124.063C314.444 119.391 311.243 114.644 304.876 116.127C300.873 117.059 296.586 121.481 295.212 125.231C294.074 128.336 293.557 136.722 297.501 138.233C307.413 142.031 315.061 129.624 315.706 121.797C316.213 115.647 314.771 127.291 315.01 129.305C316.074 138.256 319.029 146.513 319.545 155.69C320.28 168.767 320.293 179.139 314.587 191.236C309.294 202.456 304.621 215.08 294.24 222.67C288.753 226.681 279.311 230.522 273.679 224.704C261.37 211.988 277.252 186.166 283.648 173.949C291.249 159.429 304.923 147.983 317.701 138.164C328.56 129.82 343.213 125.186 356.297 121.774C362.169 120.243 378.772 112.774 373.463 115.713C368.551 118.432 364.566 129.389 368.294 133.834C375.405 142.311 386.091 130.028 389.764 123.514C391.12 121.107 391.571 118.094 392.938 115.808C392.986 115.729 392.035 116.783 391.275 117.117C390.299 117.545 388.531 117.948 388.359 119.172C386.099 135.297 412.43 116.512 417.053 114.724C422.487 112.623 432.626 111.529 438.075 113.95C439.705 114.674 441.196 115.934 442.826 116.552C443.436 116.784 446.247 116.822 445.703 116.714C443.13 116.204 441.266 114.207 438.854 113.345C434.087 111.644 431.304 117.309 430.165 121.063C426.801 132.149 433.392 148.627 446.795 140.214C450.75 137.731 454.563 133.316 456.757 129.252C459.379 124.395 458.179 121.984 453.959 119.256C449.237 116.202 444.874 114.134 442.482 120.232C440.337 125.7 458.774 121.153 461.405 120.459C463.7 119.854 474.334 118.008 475.145 115.275C475.589 113.777 472.611 115.953 472.327 116.429"
        stroke="navy"
        stroke-width="8"
        stroke-linecap="round"
        stroke-linejoin="round"
    />
</svg>
